<?xml version="1.0" encoding="UTF-8" standalone="no"?>
<!-- Created with Inkscape (http://www.inkscape.org/) -->

<svg
   width="146.33615"
   height="130.54276"
   id="svg2"
   version="1.1"
   inkscape:version="1.1.1 (3bf5ae0d25, 2021-09-20)"
   sodipodi:docname="Flask_logo.svg"
   xmlns:inkscape="http://www.inkscape.org/namespaces/inkscape"
   xmlns:sodipodi="http://sodipodi.sourceforge.net/DTD/sodipodi-0.dtd"
   xmlns="http://www.w3.org/2000/svg"
   xmlns:svg="http://www.w3.org/2000/svg"
   xmlns:rdf="http://www.w3.org/1999/02/22-rdf-syntax-ns#"
   xmlns:cc="http://creativecommons.org/ns#"
   xmlns:dc="http://purl.org/dc/elements/1.1/">
  <defs
     id="defs4">
    <inkscape:perspective
       sodipodi:type="inkscape:persp3d"
       inkscape:vp_x="0 : 429.93768 : 1"
       inkscape:vp_y="0 : 1000 : 0"
       inkscape:vp_z="744.09448 : 429.93768 : 1"
       inkscape:persp3d-origin="372.04724 : 254.54398 : 1"
       id="perspective10" />
    <inkscape:perspective
       id="perspective2824"
       inkscape:persp3d-origin="0.5 : -95.910074 : 1"
       inkscape:vp_z="1 : -95.743408 : 1"
       inkscape:vp_y="0 : 1000 : 0"
       inkscape:vp_x="0 : -95.743408 : 1"
       sodipodi:type="inkscape:persp3d" />
    <inkscape:perspective
       id="perspective2840"
       inkscape:persp3d-origin="0.5 : -95.910074 : 1"
       inkscape:vp_z="1 : -95.743408 : 1"
       inkscape:vp_y="0 : 1000 : 0"
       inkscape:vp_x="0 : -95.743408 : 1"
       sodipodi:type="inkscape:persp3d" />
    <inkscape:perspective
       id="perspective2878"
       inkscape:persp3d-origin="0.5 : -95.910074 : 1"
       inkscape:vp_z="1 : -95.743408 : 1"
       inkscape:vp_y="0 : 1000 : 0"
       inkscape:vp_x="0 : -95.743408 : 1"
       sodipodi:type="inkscape:persp3d" />
    <inkscape:perspective
       id="perspective2894"
       inkscape:persp3d-origin="0.5 : -95.910074 : 1"
       inkscape:vp_z="1 : -95.743408 : 1"
       inkscape:vp_y="0 : 1000 : 0"
       inkscape:vp_x="0 : -95.743408 : 1"
       sodipodi:type="inkscape:persp3d" />
    <inkscape:perspective
       id="perspective2910"
       inkscape:persp3d-origin="0.5 : -95.910074 : 1"
       inkscape:vp_z="1 : -95.743408 : 1"
       inkscape:vp_y="0 : 1000 : 0"
       inkscape:vp_x="0 : -95.743408 : 1"
       sodipodi:type="inkscape:persp3d" />
    <inkscape:perspective
       id="perspective2926"
       inkscape:persp3d-origin="0.5 : -95.910074 : 1"
       inkscape:vp_z="1 : -95.743408 : 1"
       inkscape:vp_y="0 : 1000 : 0"
       inkscape:vp_x="0 : -95.743408 : 1"
       sodipodi:type="inkscape:persp3d" />
    <inkscape:perspective
       id="perspective2976"
       inkscape:persp3d-origin="0.5 : -95.910074 : 1"
       inkscape:vp_z="1 : -95.743408 : 1"
       inkscape:vp_y="0 : 1000 : 0"
       inkscape:vp_x="0 : -95.743408 : 1"
       sodipodi:type="inkscape:persp3d" />
    <inkscape:perspective
       id="perspective3020"
       inkscape:persp3d-origin="0.5 : -95.910074 : 1"
       inkscape:vp_z="1 : -95.743408 : 1"
       inkscape:vp_y="0 : 1000 : 0"
       inkscape:vp_x="0 : -95.743408 : 1"
       sodipodi:type="inkscape:persp3d" />
    <inkscape:perspective
       id="perspective3036"
       inkscape:persp3d-origin="0.5 : -95.910074 : 1"
       inkscape:vp_z="1 : -95.743408 : 1"
       inkscape:vp_y="0 : 1000 : 0"
       inkscape:vp_x="0 : -95.743408 : 1"
       sodipodi:type="inkscape:persp3d" />
    <inkscape:perspective
       id="perspective3052"
       inkscape:persp3d-origin="0.5 : -95.910074 : 1"
       inkscape:vp_z="1 : -95.743408 : 1"
       inkscape:vp_y="0 : 1000 : 0"
       inkscape:vp_x="0 : -95.743408 : 1"
       sodipodi:type="inkscape:persp3d" />
    <inkscape:perspective
       id="perspective3866"
       inkscape:persp3d-origin="0.5 : -95.910074 : 1"
       inkscape:vp_z="1 : -95.743408 : 1"
       inkscape:vp_y="0 : 1000 : 0"
       inkscape:vp_x="0 : -95.743408 : 1"
       sodipodi:type="inkscape:persp3d" />
  </defs>
  <sodipodi:namedview
     id="base"
     pagecolor="#ffffff"
     bordercolor="#666666"
     borderopacity="1.0"
     inkscape:pageopacity="0.0"
     inkscape:pageshadow="2"
     inkscape:zoom="0.98994949"
     inkscape:cx="210.11173"
     inkscape:cy="-53.538085"
     inkscape:document-units="px"
     inkscape:current-layer="layer1"
     showgrid="false"
     inkscape:window-width="1920"
     inkscape:window-height="986"
     inkscape:window-x="-11"
     inkscape:window-y="-11"
     inkscape:window-maximized="1"
     inkscape:pagecheckerboard="0" />
  <metadata
     id="metadata7">
    <rdf:RDF>
      <cc:Work
         rdf:about="">
        <dc:format>image/svg+xml</dc:format>
        <dc:type
           rdf:resource="http://purl.org/dc/dcmitype/StillImage" />
      </cc:Work>
    </rdf:RDF>
  </metadata>
  <g
     inkscape:label="Layer 1"
     inkscape:groupmode="layer"
     id="layer1"
     transform="translate(-38.698561,-30.186869)">
    <path
       style="fill:#000000;stroke-width:0.765521"
       d="M 82.428244,146.42879 C 76.853543,142.04412 70.906878,137.84019 66.843318,131.92056 58.292856,121.48141 51.709404,109.39515 47.208687,96.693976 44.488311,88.435073 43.556628,79.580515 40.049703,71.640744 c -3.668594,-5.766699 0.628664,-12.070648 6.945355,-13.903705 2.812325,-0.539771 7.75727,-3.192418 1.788218,-1.296439 -5.351441,3.926256 -5.869344,-3.563959 -0.381859,-4.038251 3.744946,-0.497778 5.123549,-3.563531 3.842887,-6.323391 -4.019998,-2.621498 9.747937,-5.502569 2.820463,-9.414218 -7.216552,-7.785853 10.094413,-9.28465 5.823532,-0.442307 -1.022313,6.7994 12.096162,-1.246196 9.052369,6.605635 3.093685,3.77072 11.585052,0.858225 11.374395,6.148195 4.50669,0.309789 6.053401,4.101706 10.283996,4.392823 4.384588,1.980062 12.333151,3.540373 13.825151,8.481315 -4.35001,3.44389 -14.423091,-7.113732 -14.907022,2.419349 1.314084,14.082575 0.979299,28.589465 6.131712,42.00027 2.437057,8.12033 8.34509,14.51258 13.68069,20.83706 5.10506,6.19403 12.02009,10.55435 19.06823,14.22596 6.1827,2.91587 12.84837,4.84979 19.58648,6.06326 2.73298,-2.09041 7.55801,-9.86205 11.82146,-6.58492 0.20227,3.68221 -8.46214,7.6974 -0.40763,7.29044 4.72953,-1.42676 8.00992,3.65768 11.90461,-0.9285 3.58814,4.25022 14.91384,-2.71556 12.3608,5.97195 -3.45228,2.22732 -8.48724,0.88143 -11.94521,3.94546 -5.70127,-2.84757 -10.2403,2.54799 -16.55201,1.86563 -7.00942,1.25547 -14.14039,1.76226 -21.24681,1.77327 -11.65851,-0.92114 -23.56394,-1.30942 -34.65488,-5.36853 -6.247919,-1.81551 -12.34516,-5.37309 -17.836386,-8.93231 z m 9.846158,4.26617 c 6.100892,2.63837 12.066468,5.41903 18.752618,6.2578 10.60768,1.47536 21.56206,3.74464 32.20775,1.67463 -4.81811,-2.1756 -9.79925,0.84757 -14.59921,-1.55569 -5.75696,1.23877 -11.93484,-0.31557 -17.78743,-1.08083 -6.6554,-2.96455 -13.837706,-5.00306 -20.070206,-8.8511 -7.787759,-2.8445 4.027725,3.64789 6.130847,4.17373 4.868339,2.76329 -5.353614,-1.41655 -6.794676,-2.56527 -4.07753,-2.2873 -4.597173,-1.80936 -0.403774,0.51355 0.844614,0.49435 1.679238,1.01222 2.564081,1.43318 z m -11.60889,-8.20402 c 5.911947,2.18979 -0.02607,-4.1574 -2.73516,-3.78859 -1.200264,-2.08233 -4.585697,-3.39779 -2.197596,-4.51636 -4.295736,1.49131 -4.499973,-5.67109 -6.519175,-4.64778 -4.544525,-1.435 -1.768732,-6.51841 -7.182059,-9.64014 -0.494135,-3.28941 -5.378372,-6.14248 -6.93623,-11.10406 -0.688039,-2.54033 -5.518129,-9.83528 -2.550996,-3.04622 2.526366,6.53561 6.971303,12.13258 10.670345,17.72314 2.872297,5.32288 6.263869,10.8859 11.494878,14.20644 1.763327,1.69152 3.465857,4.28334 5.955993,4.81357 z m -17.03107,-18.69876 c 0.206354,-0.8928 1.081239,1.93234 0,0 z m 24.111148,21.32377 c 1.30914,-0.58621 -1.882507,-0.73854 0,0 z m 3.209276,1.17066 c -0.332381,-1.61647 -1.465022,0.90389 0,0 z m 4.017062,1.67566 c 1.912484,-1.82095 -2.947323,-1.14815 0,0 z m 6.885002,3.83736 c 1.16215,-1.71776 -3.719445,-0.64826 0,0 z m -13.22107,-9.21636 c 2.970457,-1.92163 -3.836682,-0.0266 0,0 z m 3.013548,1.50266 c -0.08424,-1.01591 -1.074003,0.45497 0,0 z m 15.061412,9.40064 c 2.42119,1.52799 14.13886,3.34908 6.80147,0.62656 -1.22772,0.25883 -13.605312,-3.501 -6.80147,-0.62656 z M 82.800318,134.86441 c -0.2354,-1.01887 -3.758201,-1.12486 0,0 z m 7.011634,4.08644 c 1.824779,-1.27271 -3.787467,-0.98166 0,0 z m 5.897769,3.61618 c 2.618578,-0.98723 -4.247927,-0.99189 0,0 z M 79.947199,131.75704 c 2.841133,2.17883 11.458069,0.2792 4.351048,-1.30067 -3.23472,-1.72426 -10.525058,-2.9045 -5.555819,1.03974 l 1.204765,0.26095 z m 19.757107,12.0586 c 1.183454,-2.01629 -4.962854,-1.15143 0,0 z m -6.003587,-4.77137 c 6.947251,1.96524 -5.842008,-4.39332 -1.714084,-0.72316 l 0.914896,0.41401 0.799196,0.3092 z m 12.036691,6.9569 c 6.57945,0.0628 -5.942764,-0.90704 0,1e-5 z M 77.415667,127.95041 c -0.256982,-1.22555 -1.62364,0.10272 0,0 z m 39.451403,24.29381 c 0.17546,-2.21344 -2.14718,1.64707 0,0 z M 88.643729,134.82634 c -0.397963,-1.16552 -2.05579,-0.0476 0,0 z m -10.604088,-7.64487 c 3.77726,-0.22681 -5.171338,-1.66438 0,0 z m -12.561958,-8.11991 c -0.470142,-1.81073 -4.110243,-3.25492 0,0 z m 32.978105,20.92888 c -0.691823,-0.78902 -0.325422,0.17259 0,0 z m 20.526732,12.59645 c -0.0658,-1.20572 -1.11796,0.45637 0,0 z M 96.639178,138.11451 c 0.369486,-1.55349 -3.220859,-0.47035 0,0 z m -15.292083,-9.69146 c 2.810062,-0.30089 -4.501592,-1.89973 0,0 z m 25.867975,16.07374 c 4.37909,-1.73488 -4.2681,-0.84693 0,0 z m -13.455421,-9.13377 c 5.046909,0.65071 -6.005064,-3.43279 -1.107333,-0.36538 l 1.107326,0.36541 z m 17.540341,10.78511 c 4.71189,-2.81692 3.15845,6.59632 7.99398,0.79522 4.76985,-3.48267 -4.11916,4.30568 1.75946,0.62096 4.25138,-2.84343 10.53083,1.34789 14.49779,2.71546 2.85278,-0.14015 5.6261,2.46678 8.55066,0.8808 5.62979,-1.51636 -11.00893,-2.24902 -6.64735,-4.93937 -5.1513,1.49926 -8.95731,-1.78736 -11.4921,-5.08694 -5.77824,-1.33429 -12.45921,-4.28845 -15.343,-9.402 -1.17576,-1.91995 1.69857,0.27048 -1.01497,-2.86794 -3.48185,-3.09688 -5.22045,-6.6123 -7.55781,-10.37678 -2.792278,-1.4896 -3.117579,-5.87418 -3.399857,-0.14699 0.02212,-3.61451 -3.371298,-6.04733 -4.199561,-5.03604 -0.01485,-3.48098 3.631599,-1.7361 1.078963,-4.31163 -0.549422,-3.60791 -2.358454,-7.36744 -2.902203,-11.440932 -0.844829,-1.963575 -0.11897,-6.169047 -2.883425,-1.723983 -1.007165,4.697765 -0.334288,-5.773012 1.231952,-2.320162 2.055752,-3.523316 -0.738038,-3.108932 -0.852491,-2.619696 1.339133,-2.972769 0.847577,-7.189455 -0.349414,-5.58082 0.713564,-3.150776 1.127298,-11.595745 -1.067978,-10.09919 1.330727,-3.294768 2.523676,-15.07622 -3.253164,-10.584336 -2.341235,0.03287 -6.395572,0.849877 -8.312046,1.802987 6.008955,3.312298 -0.604411,1.196185 -3.050452,0.669738 -0.318719,3.06487 -2.741475,1.739328 -5.768291,1.769377 4.834471,0.598131 -2.35417,4.944468 -5.127558,3.256146 -3.601852,1.721469 3.108489,6.018552 0.07227,7.347149 0.37314,2.003047 -5.518045,-0.723344 -5.055369,3.902403 -3.496698,-1.470986 -0.481482,5.48722 1.267911,3.133903 5.947239,1.609591 4.186715,5.279267 4.338165,8.765149 -0.969022,2.031232 -4.784117,-4.774483 -0.849682,-4.459287 -3.103967,-5.042285 -3.433537,-1.822559 -6.012831,0.519872 -0.600059,0.170114 6.57919,3.332893 2.07384,4.896805 3.963777,0.611605 4.076549,4.080287 4.883473,6.275237 2.382445,2.48145 1.894836,-2.740032 4.745516,0.24208 -1.80394,-2.65674 -9.555097,-7.485555 -3.314372,-5.936838 -0.03336,-2.673894 -1.128693,-4.830059 0.783296,-4.777751 1.893413,-3.428966 -1.982993,8.454409 2.284868,4.096484 1.181416,-0.515869 1.47404,-3.433314 3.597597,0.275503 3.084356,3.03424 1.114085,5.232922 -3.236745,2.454626 0.778403,2.640636 5.8203,3.584296 4.872805,7.713736 1.004439,3.63194 2.409739,2.29423 3.634691,2.08425 0.960904,3.52885 1.506556,0.93401 1.552138,-0.74527 4.399719,0.94184 3.369164,3.54262 4.74581,5.35967 3.03178,1.36845 -4.339503,-9.27591 0.865543,-3.20069 5.47621,4.94419 2.053736,7.00807 -2.86064,6.21599 3.110409,-0.25127 4.113466,4.20504 8.004048,4.04848 3.54785,1.6878 5.949908,8.17033 -0.165452,5.47179 -2.121059,-1.91243 -9.626983,-4.27168 -3.49637,-0.63403 5.662226,2.62208 10.159353,4.1907 15.620355,7.48207 3.90825,2.79005 5.59675,5.98567 7.07805,6.61824 -3.28472,1.56891 -9.898864,-1.25281 -4.98747,-2.11756 -3.06337,-0.55802 -6.508905,-2.10717 -3.57468,1.70963 2.49503,2.08319 8.83952,1.8625 9.97687,2.09854 -0.96405,2.12423 -2.61861,2.29316 0.0395,2.45792 -2.96543,1.58032 0.9509,1.82502 1.22571,2.72802 z m -6.06407,-17.12464 c -1.80419,-1.88682 -2.27069,-5.42091 -0.32039,-2.34575 1.00014,0.40164 3.20388,5.7753 0.32043,2.34575 z m 19.74838,12.54453 c 1.12535,-0.0729 0.0327,0.85494 0,0 z M 102.38716,124.3971 c -0.0692,-2.85261 0.6526,2.20025 0,0 z m -1.96274,-2.64078 c -2.269351,-4.3848 2.86091,1.24177 0,0 z M 76.63917,105.33977 c 1.333231,-0.35555 0.65593,2.28021 0,0 z m 18.930017,10.26071 c 0.818777,-3.07474 0.962198,2.57991 0,0 z m -13.373483,-9.29915 c -0.942771,-1.69668 1.971988,1.59125 0,0 z m 11.477288,3.67923 c -2.149972,-4.81683 1.522131,-2.63108 0.475656,0.78944 z M 73.880319,96.780855 c -0.961206,-1.58028 -2.551222,-6.217061 -2.039333,-7.632562 0.463091,2.305289 4.902328,9.92081 2.177578,3.15468 -3.011088,-5.671803 3.599328,1.841008 4.279299,3.255682 0.316638,1.40731 -1.857756,-0.384483 -0.384438,2.915317 -2.686831,-3.756915 -1.586133,2.075238 -4.033106,-1.693117 z m -6.117045,-4.215048 c 0.251808,-3.674353 1.400337,2.519573 0,0 z m 2.751505,0.947163 c 1.313001,-2.773343 2.226319,3.866277 0,0 z m -6.618813,-5.120161 c -2.27739,-2.263047 -3.925443,-4.349167 0.106555,-1.404531 1.55361,0.06063 -3.451734,-4.743969 0.374149,-1.525721 4.023048,0.733537 1.986602,6.596291 -0.480704,2.930252 z m 3.476777,-0.09089 c 1.322549,-1.310594 0.702114,1.290131 0,0 z m 2.139314,0.685829 c -2.005037,-3.758246 2.433437,1.57561 0,0 z m -4.252819,-4.064217 c -6.620558,-5.891837 8.319148,3.080845 1.081604,1.092321 L 65.259196,84.923585 Z M 84.228133,95.94486 c -2.864966,-1.717813 -0.759226,-12.093287 0.217792,-4.997203 2.785189,-0.900979 -0.153777,3.664761 1.923588,3.622504 -0.32739,2.880692 -1.256747,3.916357 -2.14138,1.374699 z m 7.016154,4.1467 c 0.280984,-3.126858 0.591357,2.13781 0,0 z m -1.218694,-1.204123 c 0.315441,-1.33581 0.03261,1.573043 0,0 z M 66.557969,82.987461 c -4.253267,-5.868218 12.361107,5.935946 2.724148,1.488401 -1.00699,-0.263369 -2.218638,-0.357406 -2.724148,-1.488401 z m 13.510758,7.16335 c -0.402495,-4.941136 0.89885,0.819039 -1.47e-4,-1.5e-5 z m 10.257792,6.5803 c 0.79383,-2.814574 0.05917,1.861907 0,0 z M 67.209518,80.747854 c 2.527881,-0.54068 10.475915,4.439552 3.177082,1.422582 -0.810989,-0.897795 -2.539846,-0.489887 -3.177082,-1.422582 z m 21.70767,10.819193 c 0.270199,-5.05245 1.509132,-3.017934 0.0093,0.723218 l -0.0093,-0.72321 -3.8e-5,-8e-6 z M 69.091233,78.989744 c 1.029974,-1.510839 -2.734157,-6.830788 0.542597,-1.908288 1.415863,1.125013 4.099441,1.88468 1.730089,2.357969 3.726358,3.287269 -0.908859,0.890769 -2.272686,-0.449681 z m 18.752282,10.999122 c 0.711567,-5.755513 0.627505,3.372003 0,0 z M 66.940109,73.673818 c 0.78673,-0.336222 0.415483,1.048254 0,0 z m 4.891386,2.911345 c 1.258835,-2.641445 2.322215,2.945951 0,0 z m 13.7974,7.67532 c -0.01332,-1.014468 0.2603,1.475656 0,0 z m -0.799234,-1.769416 c -1.915035,-4.724522 1.781313,2.501407 0,0 z m -1.175842,-3.097581 c -0.321446,-1.952221 1.092497,2.452622 -5.6e-5,-7e-6 z m 1.913628,-3.110703 c -1.314116,-2.315794 1.659472,-10.20521 1.991287,-5.312267 -1.387008,3.812488 -0.400122,5.945269 0.567473,0.831652 1.786855,-4.024463 -0.385983,7.941551 -2.558791,4.480635 z m 1.966538,-11.732865 c 0.572862,-0.703452 0.127145,0.847494 0,0 z m -3.284096,64.712692 c -0.778956,-0.6798 0.09781,0.43256 0,0 z m 6.765461,3.42237 c 3.763291,0.96559 3.744054,-0.58552 0.342815,-1.04633 -1.82944,-1.70188 -7.601982,-3.50704 -2.435266,-0.21118 0.34218,0.86678 1.42344,0.84658 2.092451,1.25751 z m -13.361543,-8.87466 c 2.073217,1.54601 7.809238,4.38165 2.953521,0.58844 1.637133,-1.90207 -3.133533,-2.9145 -1.550996,-4.18684 -4.025241,-2.4631 -3.17535,-2.24399 -0.355287,-2.1665 -4.837618,-2.1623 0.69828,-2.00056 0.437619,-3.10852 -1.865349,-0.36842 -9.265152,-3.28917 -4.911882,0.23992 -4.425388,-2.25638 -1.054584,0.84053 -2.39216,0.51312 -4.525249,-1.23385 4.03,3.44656 -0.718705,2.28468 2.59613,2.05734 6.987901,5.26979 1.097592,2.17719 -0.776097,1.11716 4.215165,2.8105 5.440298,3.65851 z m 7.075855,4.06501 c 8.603508,2.77244 -4.218032,-3.38712 0,0 z m 36.221678,21.94313 c 0.11097,-1.70684 -1.17587,1.45603 0,0 z m 3.72291,1.56686 c 1.98497,-1.92341 0.0811,3.06378 3.28909,-0.47087 0.0347,-2.53038 -0.0988,-4.02497 -3.68646,-0.95117 -0.98901,0.54848 -1.43054,2.88056 0.39737,1.42204 z M 65.577194,114.27126 c -0.609626,-2.39638 -4.273097,-2.38397 0,0 z m 3.97537,2.60502 c -1.476228,-2.44767 -5.267183,-2.21594 0,0 z m 22.616058,13.63926 c 2.208067,1.96125 10.141318,1.43905 2.681856,0.24134 -1.104807,-1.63351 -7.015345,-1.24037 -2.681856,-0.24134 z m 31.089598,19.20042 c 3.3984,-2.85165 -3.29268,1.27217 0,0 z m 7.06789,4.85702 c 0.0212,-0.91512 -1.46483,0.40066 0,0 z m 0.0109,-1.28117 c 3.76331,-3.98734 -3.64653,0.23583 -4e-5,0 z M 55.799531,106.08557 c -3.207488,-4.57649 -1.993864,-6.633577 -5.086988,-10.370335 -0.585557,-2.857528 -5.306337,-9.341846 -2.441688,-2.472226 2.623852,4.017727 3.403545,10.238331 7.528676,12.842561 z m 73.357039,45.93871 c 6.92359,-4.47505 -2.842,-1.94933 0,0 z m 5.28523,2.07043 c 3.46712,-2.97686 -2.19315,-0.62263 0,0 z m -70.04296,-44.882 c 0.992271,-1.47622 -2.562689,-0.18882 0,0 z m 68.93941,43.46836 c 3.357,-2.16448 -0.77345,-1.83216 -0.60846,0.19906 z M 87.779166,123.96503 c -0.115403,-1.46156 -1.772747,0.12406 0,0 z m 2.815538,1.62007 c -0.894801,-1.80907 -1.375763,0.28416 0,0 z m 48.130186,28.55869 c 4.30074,-3.10252 -2.60705,-0.59399 -0.90275,0.58781 z m -1.64687,-0.79598 c 3.50351,-2.93581 -3.69886,1.30104 0,0 z m 8.41432,5.60348 c 2.35229,-1.57556 -2.85781,-0.50964 0,0 z M 66.556196,108.1482 c 3.153152,0.70647 12.600769,7.76536 7.027069,0.48819 -2.854619,-0.84502 -1.14262,-7.8229 -4.054357,-6.58791 1.954352,3.26487 1.607946,4.6545 -2.495323,2.59618 -5.157165,-2.51743 -2.898175,1.24757 -1.890295,2.28522 -1.373485,0.31212 1.816754,1.19207 1.412906,1.21832 z M 52.190529,96.802986 c 0.564501,-2.334769 -5.197741,-12.844524 -2.721015,-5.266138 0.894022,1.587482 0.803126,4.596085 2.721015,5.266138 z m 26.367169,16.255924 c -1.623661,-1.35786 -0.07716,-0.19217 0,0 z m 3.998311,0.93048 c -0.0021,-2.47324 -4.419549,-1.00433 0,0 z m 34.648591,21.84276 c -0.66085,-1.68981 -2.61218,-0.0392 6e-5,3e-5 z m 1.66386,1.21541 c -0.24563,-0.94577 -0.95995,0.18256 0,0 z m 13.73355,8.65045 c 1.32088,-0.97582 -1.6483,-0.12462 0,0 z M 59.36628,98.634915 c 3.77803,-1.462696 -4.047881,-1.043007 0,0 z m 54.7881,34.516835 c -0.042,-2.44583 -2.4085,0.60678 0,0 z M 57.873588,95.156504 c 2.426828,-0.81975 -2.245014,-0.539929 0,0 z m 7.043961,3.412124 c -0.04402,-0.803904 -0.745109,0.304272 0,0 z m 85.915441,52.684512 c 3.12065,-0.63271 10.232,1.58837 11.38139,-0.82742 -3.78966,-0.092 -13.11133,-2.67368 -13.55236,0.61608 l 0.82958,0.13069 1.34139,0.0806 z M 67.156296,99.132801 c 0.05425,-2.47841 -1.932686,-0.09257 0,0 z M 48.635934,86.285614 c -0.84108,-4.72206 -3.198951,-0.714667 0,0 z m 4.416437,1.110104 c 0.05425,-1.516266 -4.042379,-1.364341 0,0 z m 2.523857,1.239554 c -0.729555,-0.590951 -0.571047,0.746543 0,0 z m 15.880508,10.187356 c 0.747619,-0.68681 -1.769972,-0.508727 0,0 z M 53.895217,85.839676 c -0.426872,-3.566538 -5.115207,-0.534372 0,0 z m -9.054395,-5.874995 c -0.128775,-1.646014 -0.882358,0.620921 0,0 z m 1.346808,-1.017126 c -0.219727,-1.951759 -1.15633,0.248325 0,0 z m 7.441466,4.441888 c 3.146661,-1.236047 -5.731647,-2.556716 -0.642956,-0.233529 z m 99.592384,61.516567 c 2.01402,-1.84652 -2.5597,-0.57091 0,0 z m 12.03145,6.23662 c 0.80711,-2.38735 -2.03209,0.31431 0,0 z M 54.389597,79.489121 c 0.331484,-2.309402 -2.49465,0.458562 0,0 z M 43.802199,72.395659 c -0.568755,-3.260436 -0.490959,-8.983433 4.949192,-7.049359 -7.261699,1.441735 5.025902,9.02556 3.474205,3.037863 3.053375,0.149502 5.973104,-1.804549 4.37073,1.160838 6.016042,-0.66444 10.18688,-5.881197 15.997977,-5.150177 4.526567,-0.599015 9.475752,-1.053322 14.353706,-2.875415 4.010601,-0.288931 7.87135,-4.60695 5.673028,-7.166331 -5.469307,-0.462767 -11.194505,0.221536 -17.239608,1.423097 -6.698732,1.392572 -12.783438,4.038356 -19.542303,5.174051 -6.587986,0.884972 1.325114,2.438309 -0.561949,2.784372 -3.437708,1.192785 4.099736,1.997129 -0.445672,3.254555 -2.807159,-0.533751 -5.729053,-1.498264 -4.529959,-4.456495 -6.310713,0.818895 -11.856018,3.438051 -6.870174,9.860016 l 0.37082,0.0028 7e-6,-1.96e-4 z m 15.206522,-7.744618 c 1.479641,-5.450861 7.927141,4.485395 2.425209,0.724011 -0.657163,-0.491814 -1.737961,-0.893047 -2.425209,-0.724011 z m 0.287865,-2.642727 c 2.135543,-1.590949 1.13524,0.891954 0,0 z m 2.711637,0.04304 c 0.192783,-2.508212 6.207416,1.327834 0.991745,0.902931 z m 3.709276,-1.491381 c 1.354574,-1.582741 0.389359,1.407838 0,0 z m 0.948911,-0.635421 c 2.255513,-2.710108 12.773177,-1.729627 5.074609,-0.26425 -2.063493,-1.553519 -3.645253,0.916003 -5.074609,0.26425 z m 13.725796,-2.115811 c -0.343106,-7.402754 6.819081,2.630693 0,0 z m 3.894615,-0.02131 c 1.423885,-3.731075 5.525582,-1.497185 0.658908,-0.749756 0.10568,0.397041 -0.142708,1.926182 -0.658908,0.749756 z m -31.432989,19.78659 c 4.254404,-2.605229 -4.516529,-2.260231 0,0 z m 3.145688,0.874121 c 1.491627,-1.586069 -3.241104,-0.643319 0,0 z m -9.268663,-6.578068 c 2.430963,-1.867423 -2.876705,-0.709999 0,0 z M 172.3546,150.46029 c 0.0703,-2.16657 -1.85806,0.97632 0,0 z m -12.76496,-8.71113 c 0.36299,-2.49441 -1.6404,0.21747 0,0 z m 16.27514,9.55119 c 3.39886,0.0115 10.29828,-1.05553 2.90298,-1.05215 -1.16048,0.18098 -6.76192,0.14216 -2.90297,1.05212 z M 58.76653,76.919233 c 2.750713,-0.188935 4.30365,-3.034239 -0.531985,-2.870684 -7.494407,-0.775886 6.61219,2.566124 -0.961416,1.610525 -1.017658,0.673923 1.434284,1.44662 1.493401,1.260159 z m 2.42258,1.226171 c -0.287206,-1.766104 -0.850613,0.938215 0,0 z m 2.873684,-7.662784 c 1.193662,-1.480559 -1.651761,-0.395815 0,0 z M 54.914733,55.191158 c 4.90919,-1.670083 11.622433,-3.546723 13.940385,0.82231 -2.35902,-2.839262 -0.952009,-5.634351 1.276091,-1.483125 3.150558,4.200158 4.72779,-1.910348 2.678622,-3.31916 2.335196,2.901512 4.991228,4.272586 1.563522,0.183392 3.724788,-4.480538 -7.458246,0.58672 -10.000075,0.535692 -1.222968,0.548925 -12.626171,2.908128 -9.458545,3.260891 z m 2.877063,-5.510089 c 2.799757,-2.113155 9.683045,1.256976 5.266076,-2.100104 -0.431843,-0.381453 -9.673176,2.545719 -5.266076,2.100104 z m 10.20706,0.421398 c 3.276725,0.08361 -1.413396,-4.401963 2.491236,-2.369408 -0.641273,-2.094944 -4.546088,-2.487142 -6.455111,-3.324129 -1.079746,1.915374 2.197792,5.719282 3.963875,5.693537 z M 59.58157,40.837015 c 1.133585,-1.536711 -1.986686,0.779069 0,0 z m 4.17177,0.998509 c 5.280459,-0.700376 -1.346008,-2.274011 -1.064038,-0.05628 l 1.064038,0.05628 v -7e-6 z M 55.963793,35.74039 c -3.71803,-4.853557 6.992255,0.815868 3.214735,-4.265975 -3.179401,-2.531764 -6.234626,2.849095 -3.214735,4.265975 z m 47.714987,25.700668 c 1.70529,-3.023031 -7.040467,-4.074874 -1.14897,-1.071405 0.54243,0.18126 0.41967,1.280486 1.14897,1.071405 z"
       id="path2900" />
  </g>
</svg>
